<?xml version="1.0" encoding="utf-8"?>
<!-- Generator: Adobe Illustrator 19.2.1, SVG Export Plug-In . SVG Version: 6.00 Build 0)  -->
<svg version="1.1" id="Calque_1" xmlns="http://www.w3.org/2000/svg" xmlns:xlink="http://www.w3.org/1999/xlink" x="0px" y="0px"
	 viewBox="0 0 23.4 23.5" style="enable-background:new 0 0 23.4 23.5;" xml:space="preserve">
<title>Rectangle 2@1x</title>
<desc>Created with Sketch.</desc>
<g>
	<circle class="st0" cx="11.2" cy="0.4" r="0.4"/>
	<circle class="st0" cx="9.2" cy="0.7" r="0.4"/>
	<circle class="st0" cx="7.2" cy="1.3" r="0.4"/>
	<circle class="st0" cx="5.4" cy="2.2" r="0.4"/>
	<circle class="st0" cx="3.8" cy="3.5" r="0.4"/>
	<circle class="st0" cx="2.5" cy="5" r="0.4"/>
	<circle class="st0" cx="1.4" cy="6.8" r="0.4"/>
	<circle class="st0" cx="0.8" cy="8.7" r="0.4"/>
	<circle class="st0" cx="0.4" cy="10.7" r="0.4"/>
	<circle class="st0" cx="0.4" cy="12.8" r="0.4"/>
	<circle class="st0" cx="0.7" cy="14.8" r="0.4"/>
	<circle class="st0" cx="1.5" cy="16.6" r="0.4"/>
	<circle class="st0" cx="2.5" cy="18.4" r="0.4"/>
	<circle class="st0" cx="3.8" cy="19.9" r="0.4"/>
	<circle class="st0" cx="5.4" cy="21.2" r="0.4"/>
	<circle class="st0" cx="7.2" cy="22.2" r="0.4"/>
	<circle class="st0" cx="9.2" cy="22.8" r="0.4"/>
	<circle class="st0" cx="11.1" cy="23.1" r="0.4"/>
	<circle class="st0" cx="13.2" cy="23" r="0.4"/>
	<circle class="st0" cx="15.2" cy="22.5" r="0.4"/>
	<circle class="st0" cx="17.1" cy="21.7" r="0.4"/>
	<circle class="st0" cx="18.7" cy="20.6" r="0.4"/>
	<circle class="st0" cx="20.2" cy="19.2" r="0.4"/>
	<circle class="st0" cx="21.4" cy="17.6" r="0.4"/>
	<circle class="st0" cx="22.3" cy="15.7" r="0.4"/>
	<circle class="st0" cx="22.8" cy="13.8" r="0.4"/>
	<circle class="st0" cx="23" cy="11.7" r="0.4"/>
	<circle class="st0" cx="22.8" cy="9.7" r="0.4"/>
	<circle class="st0" cx="22.3" cy="7.7" r="0.4"/>
	<circle class="st0" cx="21.4" cy="5.9" r="0.4"/>
	<circle class="st0" cx="20.2" cy="4.2" r="0.4"/>
	<circle class="st0" cx="18.8" cy="2.8" r="0.4"/>
	<circle class="st0" cx="17.1" cy="1.7" r="0.4"/>
	<circle class="st0" cx="15.2" cy="0.9" r="0.4"/>
	<circle class="st0" cx="13.2" cy="0.5" r="0.4"/>
</g>
</svg>
