<svg xmlns="http://www.w3.org/2000/svg" viewBox="0 0 271 533.4"><path d="M268 347.5c-4-21.5-10.1-39.1-18.3-52.7-12.5-20.1-27.7-33.6-45.5-40.4 10.8-4.8 20.1-11.8 28.1-20.8 19-21.5 28.5-50.2 28.5-85.9 0-21.8-2.6-40.7-7.7-56.6-9.4-29.8-25-51.8-46.8-65.9C180.8 8.4 152.1 0 120.4 0H0v137.5h86.8V81.7h33.6c15.9 0 28.8 5.3 38.7 15.7 10.8 11.3 16.2 28.1 16.2 50.2 0 13.3-1.6 24.5-4.7 33.6-8.5 24.4-25.2 36.6-50.2 36.6H0v149.4h86.8v-72.4h33.6c19.8 0 34.9 6.2 45.1 18.7 11.3 13.6 17 35.3 17 65.1 0 12.5-1.8 23.5-5.5 33.2-10.5 28.1-29.4 42.1-56.6 42.1H0v79.5h148.9c20.1 0 40.4-6.2 60.8-18.7 18.1-11.1 32.2-25.8 42.1-44.2 12.8-23.5 19.1-52.2 19.1-85.9.1-13.7-.9-26-2.9-37.1z"/></svg>